<svg id="Layer_2" fill="white" viewBox="0 0 32 32" xmlns="http://www.w3.org/2000/svg" data-name="Layer 2"><path d="m18.36 3.75c-.78-.42-1.72-.38-2.47.11l-9.43 6.24c-.19-.06-.39-.09-.6-.09h-2.81c-1.13 0-2.05.92-2.05 2.05v7.89c0 1.13.92 2.05 2.05 2.05h2.81c.21 0 .41-.04.6-.09l9.44 6.24c.4.27.87.4 1.33.4.39 0 .78-.1 1.14-.29.78-.42 1.26-1.23 1.26-2.12v-20.27c0-.89-.48-1.7-1.26-2.12zm-12.5 16.24-2.86-.05.05-7.94 2.84.02s.02.02.03.03zm11.76 6.14c0 .21-.13.32-.21.36s-.24.1-.42-.02l-9.13-6.04s0-.01 0-.01c.04-.15.06-.31.06-.47v-7.89c0-.16-.02-.32-.06-.47 0 0 0 0 0-.01l9.13-6.04c.18-.12.34-.06.42-.02s.21.15.21.36v20.26z"/><path d="m24.07 11.11c-.39-.39-1.02-.4-1.41-.01s-.4 1.02-.01 1.41c.91.92 1.41 2.14 1.41 3.44s-.53 2.59-1.49 3.52c-.4.38-.41 1.02-.02 1.41.2.2.46.3.72.3s.5-.09.7-.28c1.35-1.31 2.1-3.07 2.1-4.95s-.7-3.54-1.98-4.84z"/><path d="m27.84 8.28c-.39-.39-1.02-.39-1.42 0-.39.39-.39 1.02 0 1.41 1.67 1.68 2.58 3.9 2.58 6.26s-.95 4.67-2.67 6.35c-.39.39-.4 1.02-.01 1.41.2.2.46.3.71.3s.5-.1.7-.29c2.11-2.07 3.27-4.83 3.27-7.78s-1.12-5.62-3.16-7.67z"/></svg>